<svg xmlns="http://www.w3.org/2000/svg" width="14.999" height="15" viewBox="0 0 14.999 15">
  <path id="filter" d="M14.913,0H1.086A.586.586,0,0,0,.5.586,5.723,5.723,0,0,0,2.419,4.86L4.985,7.14a2.088,2.088,0,0,1,.7,1.559v5.714A.586.586,0,0,0,6.6,14.9l3.457-2.3a.586.586,0,0,0,.261-.488V8.7a2.088,2.088,0,0,1,.7-1.559L13.58,4.86A5.723,5.723,0,0,0,15.5.586.586.586,0,0,0,14.913,0ZM12.8,3.984,10.236,6.265A3.261,3.261,0,0,0,9.142,8.7v3.1L6.857,13.319V8.7A3.261,3.261,0,0,0,5.764,6.265L3.2,3.984A4.551,4.551,0,0,1,1.71,1.172h12.58A4.55,4.55,0,0,1,12.8,3.984Zm0,0" transform="translate(-0.5)"/>
</svg>
