<svg xmlns="http://www.w3.org/2000/svg" width="11.926" height="15.5" viewBox="0 0 11.926 15.5">
  <g id="google-forms" transform="translate(-60.75 0.25)">
    <path id="Path_2267" data-name="Path 2267" d="M72.3,3.644,68.781.129A.442.442,0,0,0,68.471,0H62.318A1.32,1.32,0,0,0,61,1.318V13.682A1.32,1.32,0,0,0,62.318,15h8.789a1.32,1.32,0,0,0,1.318-1.318V3.955A.444.444,0,0,0,72.3,3.644ZM68.91,1.5l2.015,2.015H69.35a.44.44,0,0,1-.439-.439Zm2.2,12.621H62.318a.44.44,0,0,1-.439-.439V1.318a.44.44,0,0,1,.439-.439h5.713v2.2A1.32,1.32,0,0,0,69.35,4.395h2.2v9.287A.44.44,0,0,1,71.107,14.121Z" transform="translate(0 0)" fill="#758094" stroke="#758094" stroke-width="0.5"/>
    <path id="Path_2268" data-name="Path 2268" d="M185.834,242h-4.395a.439.439,0,0,0,0,.879h4.395a.439.439,0,0,0,0-.879Z" transform="translate(-116.484 -235.91)" fill="#758094" stroke="#758094" stroke-width="0.5"/>
    <path id="Path_2269" data-name="Path 2269" d="M185.834,302h-4.395a.439.439,0,0,0,0,.879h4.395a.439.439,0,0,0,0-.879Z" transform="translate(-116.484 -293.152)" fill="#758094" stroke="#758094" stroke-width="0.5"/>
    <path id="Path_2270" data-name="Path 2270" d="M185.834,362h-4.395a.439.439,0,0,0,0,.879h4.395a.439.439,0,0,0,0-.879Z" transform="translate(-116.484 -350.395)" fill="#758094" stroke="#758094" stroke-width="0.5"/>
    <ellipse id="Ellipse_299" data-name="Ellipse 299" cx="0.451" cy="0.3" rx="0.451" ry="0.3" transform="translate(62.804 6.182)" fill="#758094" stroke="#758094" stroke-width="0.5"/>
    <ellipse id="Ellipse_300" data-name="Ellipse 300" cx="0.451" cy="0.301" rx="0.451" ry="0.301" transform="translate(62.804 8.986)" fill="#758094" stroke="#758094" stroke-width="0.5"/>
    <ellipse id="Ellipse_301" data-name="Ellipse 301" cx="0.451" cy="0.301" rx="0.451" ry="0.301" transform="translate(62.804 11.791)" fill="#758094" stroke="#758094" stroke-width="0.5"/>
  </g>
</svg>
