<svg xmlns="http://www.w3.org/2000/svg" width="17.672" height="21.188" viewBox="0 0 17.672 21.188">
  <g id="Group_269" data-name="Group 269" transform="translate(0.751 0.75)">
    <path id="Path_225" data-name="Path 225" d="M362.544,703.086H351.276c-1.421,0-2.544-.923-2.444-2.011l.945-10.293a2.277,2.277,0,0,1,2.444-1.747H361.6a2.277,2.277,0,0,1,2.444,1.747l.945,10.293C365.088,702.162,363.965,703.086,362.544,703.086Z" transform="translate(-348.825 -683.398)" fill="none" stroke="#848b9f" stroke-miterlimit="10" stroke-width="1.5"/>
    <path id="Path_226" data-name="Path 226" d="M352.253,690.465v-1.48a3.451,3.451,0,0,1,3.451-3.452h0a3.452,3.452,0,0,1,3.452,3.452v1.48" transform="translate(-347.439 -685.533)" fill="none" stroke="#848b9f" stroke-miterlimit="10" stroke-width="1.5"/>
  </g>
</svg>
