<svg xmlns="http://www.w3.org/2000/svg" width="21.96" height="19.703" viewBox="0 0 21.96 19.703">
  <path id="heart" d="M18.837,1.781A5.5,5.5,0,0,0,14.745,0,5.147,5.147,0,0,0,11.53,1.11a6.577,6.577,0,0,0-1.3,1.357A6.574,6.574,0,0,0,8.93,1.11,5.146,5.146,0,0,0,5.716,0,5.5,5.5,0,0,0,1.623,1.781,6.4,6.4,0,0,0,0,6.149a7.615,7.615,0,0,0,2.029,4.985A43.27,43.27,0,0,0,7.109,15.9c.7.6,1.5,1.28,2.33,2a1.2,1.2,0,0,0,1.582,0c.828-.724,1.627-1.4,2.331-2a43.25,43.25,0,0,0,5.079-4.768A7.615,7.615,0,0,0,20.46,6.149,6.4,6.4,0,0,0,18.837,1.781Zm0,0" transform="translate(0.75 0.75)" fill="none" stroke="#848b9f" stroke-linecap="round" stroke-linejoin="round" stroke-width="1.5"/>
</svg>
