<svg id="next" xmlns="http://www.w3.org/2000/svg" width="12.28" height="12" viewBox="0 0 12.28 12">
  <g id="Group_3840" data-name="Group 3840" transform="translate(0 0)">
    <g id="Group_3839" data-name="Group 3839">
      <path id="Path_27117" data-name="Path 27117" d="M8.858,11.342l-7.92-5.4a.6.6,0,0,0-.938.5v10.8a.6.6,0,0,0,.938.5l7.92-5.4a.6.6,0,0,0,0-.992ZM1.2,16.1V7.573l6.255,4.265Z" transform="translate(0 -5.838)" fill="#1b2437"/>
    </g>
  </g>
  <g id="Group_3842" data-name="Group 3842" transform="translate(11.08 0.68)">
    <g id="Group_3841" data-name="Group 3841">
      <path id="Path_27118" data-name="Path 27118" d="M462.568,34.188a.6.6,0,0,0-.6.6v9.44a.6.6,0,1,0,1.2,0v-9.44A.6.6,0,0,0,462.568,34.188Z" transform="translate(-461.968 -34.188)" fill="#1b2437"/>
    </g>
  </g>
</svg>
