<svg xmlns="http://www.w3.org/2000/svg" width="15.493" height="15.519" viewBox="0 0 15.493 15.519">
  <g id="Group_4916" data-name="Group 4916" transform="translate(-1324.748 -42.731)">
    <g id="clapperboard" transform="translate(1325 43)">
      <g id="Group_3142" data-name="Group 3142" transform="translate(0.608 5.622)">
        <g id="Group_3141" data-name="Group 3141">
          <path id="Path_2277" data-name="Path 2277" d="M35.007,191.81H21.252a.313.313,0,0,0-.313.313v7.5a1.565,1.565,0,0,0,1.563,1.563H33.756a1.565,1.565,0,0,0,1.563-1.563v-7.5A.313.313,0,0,0,35.007,191.81Zm-.313,7.815a.939.939,0,0,1-.938.938H22.5a.939.939,0,0,1-.938-.938v-7.19h13.13Z" transform="translate(-20.939 -191.81)" fill="#758094" stroke="#758094" stroke-width="0.5"/>
        </g>
      </g>
      <g id="Group_3144" data-name="Group 3144" transform="translate(0 0)">
        <g id="Group_3143" data-name="Group 3143">
          <path id="Path_2278" data-name="Path 2278" d="M15.173,2.729,14.641.71A.944.944,0,0,0,13.52.023L.924,3.012a.937.937,0,0,0-.7,1.142L.812,6.482a.312.312,0,0,0,.3.236.308.308,0,0,0,.078-.009.312.312,0,0,0,.226-.38l-.034-.136L14.94,3.114a.313.313,0,0,0,.233-.385ZM1.231,5.587.829,4a.313.313,0,0,1,.236-.382L13.662.632A.282.282,0,0,1,13.73.624a.316.316,0,0,1,.305.241l.451,1.71Z" transform="translate(-0.194 0)" fill="#758094" stroke="#758094" stroke-width="0.5"/>
        </g>
      </g>
      <g id="Group_3146" data-name="Group 3146" transform="translate(1.858 5.622)">
        <g id="Group_3145" data-name="Group 3145">
          <path id="Path_2279" data-name="Path 2279" d="M65.3,191.848a.315.315,0,0,0-.42.14l-1.25,2.5a.313.313,0,0,0,.56.28l1.25-2.5A.313.313,0,0,0,65.3,191.848Z" transform="translate(-63.593 -191.816)" fill="#758094" stroke="#758094" stroke-width="0.5"/>
        </g>
      </g>
      <g id="Group_3148" data-name="Group 3148" transform="translate(4.984 5.622)">
        <g id="Group_3147" data-name="Group 3147">
          <path id="Path_2280" data-name="Path 2280" d="M171.963,191.848a.314.314,0,0,0-.42.14l-1.25,2.5a.313.313,0,1,0,.56.28l1.25-2.5A.313.313,0,0,0,171.963,191.848Z" transform="translate(-170.26 -191.816)" fill="#758094" stroke="#758094" stroke-width="0.5"/>
        </g>
      </g>
      <g id="Group_3150" data-name="Group 3150" transform="translate(8.11 5.622)">
        <g id="Group_3149" data-name="Group 3149">
          <path id="Path_2281" data-name="Path 2281" d="M278.629,191.848a.315.315,0,0,0-.42.14l-1.25,2.5a.313.313,0,1,0,.56.28l1.25-2.5A.313.313,0,0,0,278.629,191.848Z" transform="translate(-276.926 -191.816)" fill="#758094" stroke="#758094" stroke-width="0.5"/>
        </g>
      </g>
      <g id="Group_3152" data-name="Group 3152" transform="translate(11.237 5.622)">
        <g id="Group_3151" data-name="Group 3151">
          <path id="Path_2282" data-name="Path 2282" d="M385.3,191.848a.314.314,0,0,0-.42.14l-1.251,2.5a.313.313,0,1,0,.56.28l1.25-2.5A.313.313,0,0,0,385.3,191.848Z" transform="translate(-383.593 -191.816)" fill="#758094" stroke="#758094" stroke-width="0.5"/>
        </g>
      </g>
      <g id="Group_3154" data-name="Group 3154" transform="translate(0.608 8.122)">
        <g id="Group_3153" data-name="Group 3153">
          <path id="Path_2283" data-name="Path 2283" d="M35.007,277.143H21.252a.313.313,0,1,0,0,.625H35.007a.313.313,0,1,0,0-.625Z" transform="translate(-20.939 -277.143)" fill="#758094" stroke="#758094" stroke-width="0.5"/>
        </g>
      </g>
      <g id="Group_3156" data-name="Group 3156" transform="translate(1.257 2.831)">
        <g id="Group_3155" data-name="Group 3155">
          <path id="Path_2284" data-name="Path 2284" d="M45.765,98.839l-2.153-2.153a.313.313,0,1,0-.442.442l2.153,2.154a.314.314,0,0,0,.221.091.31.31,0,0,0,.221-.092A.313.313,0,0,0,45.765,98.839Z" transform="translate(-43.078 -96.594)" fill="#758094" stroke="#758094" stroke-width="0.5"/>
        </g>
      </g>
      <g id="Group_3158" data-name="Group 3158" transform="translate(4.314 2.136)">
        <g id="Group_3157" data-name="Group 3157">
          <path id="Path_2285" data-name="Path 2285" d="M150.066,75.137l-2.155-2.153a.313.313,0,0,0-.442.442l2.155,2.153a.313.313,0,1,0,.443-.442Z" transform="translate(-147.377 -72.892)" fill="#758094" stroke="#758094" stroke-width="0.5"/>
        </g>
      </g>
      <g id="Group_3160" data-name="Group 3160" transform="translate(7.373 1.441)">
        <g id="Group_3159" data-name="Group 3159">
          <path id="Path_2286" data-name="Path 2286" d="M254.467,51.415l-2.151-2.154a.313.313,0,1,0-.442.442l2.151,2.154a.314.314,0,0,0,.221.091.309.309,0,0,0,.221-.091A.313.313,0,0,0,254.467,51.415Z" transform="translate(-251.782 -49.17)" fill="#758094" stroke="#758094" stroke-width="0.5"/>
        </g>
      </g>
      <g id="Group_3162" data-name="Group 3162" transform="translate(10.428 0.747)">
        <g id="Group_3161" data-name="Group 3161">
          <path id="Path_2287" data-name="Path 2287" d="M358.681,27.735l-2.152-2.154a.313.313,0,1,0-.442.442l2.152,2.154a.313.313,0,0,0,.442-.442Z" transform="translate(-355.995 -25.49)" fill="#758094" stroke="#758094" stroke-width="0.5"/>
        </g>
      </g>
    </g>
  </g>
</svg>
