<svg xmlns="http://www.w3.org/2000/svg" width="24.157" height="19.2" viewBox="0 0 24.157 19.2">
  <g id="multimedia_1_" data-name="multimedia (1)" transform="translate(0.1 -5.9)">
    <path id="Path_27141" data-name="Path 27141" d="M29.178,23.956l-4.543-2.891a.413.413,0,0,0-.635.349V27.2a.413.413,0,0,0,.635.349l4.543-2.891a.413.413,0,0,0,0-.7Zm-4.352,2.488V22.165L28.187,24.3Z" transform="translate(-14.087 -8.804)" fill="#758094" stroke="#758094" stroke-width="0.2"/>
    <path id="Path_27142" data-name="Path 27142" d="M23.543,6H.413A.413.413,0,0,0,0,6.413V24.587A.413.413,0,0,0,.413,25h23.13a.413.413,0,0,0,.413-.413V6.413A.413.413,0,0,0,23.543,6ZM4.13,15.087H.826V11.37h3.3Zm-3.3.826h3.3V19.63H.826Zm4.13,4.13V6.826H19V24.174H4.957ZM23.13,15.087h-3.3V11.37h3.3Zm-3.3.826h3.3V19.63h-3.3Zm3.3-9.087v3.717h-3.3V6.826Zm-22.3,0h3.3v3.717H.826Zm0,17.348V20.457h3.3v3.717Zm22.3,0h-3.3V20.457h3.3Z" fill="#758094" stroke="#758094" stroke-width="0.2"/>
  </g>
</svg>
