<svg xmlns="http://www.w3.org/2000/svg" width="15.5" height="15.501" viewBox="0 0 15.5 15.501">
  <g id="music" transform="translate(0.25 0.251)">
    <path id="Path_2288" data-name="Path 2288" d="M14.842.1a.439.439,0,0,0-.36-.1L4.756,1.764a.439.439,0,0,0-.361.432v8.2a2.635,2.635,0,1,0,.879,1.963V5.787l8.848-1.6V9.081A2.635,2.635,0,1,0,15,11.045V.439A.439.439,0,0,0,14.842.1ZM2.637,14.121a1.758,1.758,0,1,1,1.758-1.758A1.76,1.76,0,0,1,2.637,14.121ZM5.273,4.894V2.564l8.848-1.6v2.33Zm7.09,7.909a1.758,1.758,0,1,1,1.758-1.758A1.76,1.76,0,0,1,12.363,12.8Z" transform="translate(0 0)" fill="#758094" stroke="#758094" stroke-width="0.5"/>
  </g>
</svg>
