<svg xmlns="http://www.w3.org/2000/svg" width="20.467" height="20" viewBox="0 0 20.467 20">
  <g id="next" transform="translate(0 -5.838)">
    <g id="Group_3840" data-name="Group 3840" transform="translate(0 5.838)">
      <g id="Group_3839" data-name="Group 3839">
        <path id="Path_27117" data-name="Path 27117" d="M14.763,15.012l-13.2-9A1,1,0,0,0,0,6.838v18a1,1,0,0,0,1.563.827l13.2-9a1,1,0,0,0,0-1.653ZM2,22.945V8.73l10.425,7.108Z" transform="translate(0 -5.838)" fill="#1b2437"/>
      </g>
    </g>
    <g id="Group_3842" data-name="Group 3842" transform="translate(18.467 6.971)">
      <g id="Group_3841" data-name="Group 3841">
        <path id="Path_27118" data-name="Path 27118" d="M462.968,34.188a1,1,0,0,0-1,1V50.921a1,1,0,1,0,2,0V35.188A1,1,0,0,0,462.968,34.188Z" transform="translate(-461.968 -34.188)" fill="#1b2437"/>
      </g>
    </g>
  </g>
</svg>
