<svg xmlns="http://www.w3.org/2000/svg" width="32.639" height="21.75" viewBox="0 0 32.639 21.75">
  <g id="Group_3845" data-name="Group 3845" transform="translate(-1582.611 -1001.5)">
    <line id="Line_626" data-name="Line 626" x2="21" transform="translate(1593.5 1006.5)" fill="none" stroke="#1b2437" stroke-linecap="round" stroke-width="1.5"/>
    <line id="Line_627" data-name="Line 627" x2="31" transform="translate(1583.5 1014.5)" fill="none" stroke="#1b2437" stroke-linecap="round" stroke-width="1.5"/>
    <line id="Line_628" data-name="Line 628" x2="31" transform="translate(1583.5 1022.5)" fill="none" stroke="#1b2437" stroke-linecap="round" stroke-width="1.5"/>
    <g id="Polygon_6" data-name="Polygon 6" transform="translate(1591.5 1001.5) rotate(90)" fill="#1b2437">
      <path d="M 8.290149688720703 8.13889217376709 L 1.709849953651428 8.13889217376709 C 1.585070013999939 8.13889217376709 1.521080017089844 8.061332702636719 1.494050025939941 8.015102386474609 C 1.467010021209717 7.968872547149658 1.430780053138733 7.875072479248047 1.491950035095215 7.766322612762451 L 4.782100200653076 1.91717255115509 C 4.844470024108887 1.806282520294189 4.945390224456787 1.789732575416565 5 1.789732575416565 C 5.054609775543213 1.789732575416565 5.155529975891113 1.806282520294189 5.217899799346924 1.91717255115509 L 8.508049964904785 7.766332626342773 C 8.569219589233398 7.875072479248047 8.532990455627441 7.968872547149658 8.505949974060059 8.015102386474609 C 8.478919982910156 8.061332702636719 8.41493034362793 8.13889217376709 8.290149688720703 8.13889217376709 Z" stroke="none"/>
      <path d="M 5 3.059585094451904 L 2.564774036407471 7.388892650604248 L 7.435234546661377 7.388892650604248 L 5 3.059585094451904 M 5 1.039727210998535 C 5.340212345123291 1.039727210998535 5.68042516708374 1.20964241027832 5.871580123901367 1.549472808837891 L 9.16172981262207 7.398632526397705 C 9.536689758300781 8.065232276916504 9.054980278015137 8.88889217376709 8.290149688720703 8.88889217376709 L 1.709850311279297 8.88889217376709 C 0.9450197219848633 8.88889217376709 0.4633102416992188 8.065232276916504 0.8382701873779297 7.398632526397705 L 4.128419876098633 1.549472808837891 C 4.31957483291626 1.20964241027832 4.659787654876709 1.039727210998535 5 1.039727210998535 Z" stroke="none" fill="#1b2437"/>
    </g>
  </g>
</svg>
