<svg xmlns="http://www.w3.org/2000/svg" width="22.825" height="22.054" viewBox="0 0 22.825 22.054">
  <path id="Path_224" data-name="Path 224" d="M14.338,14.808v4.7a1.653,1.653,0,0,0,1.736,1.646h4.215a1.653,1.653,0,0,0,1.736-1.646V11.869A3.3,3.3,0,0,0,20.909,9.4L12.23,1.053a1.244,1.244,0,0,0-1.736,0L1.816,9.4A3.127,3.127,0,0,0,.7,11.869v7.642a1.653,1.653,0,0,0,1.736,1.646H6.651a1.653,1.653,0,0,0,1.736-1.646v-4.7a1.653,1.653,0,0,1,1.736-1.646h2.6A1.623,1.623,0,0,1,14.338,14.808Z" transform="translate(0.05 0.147)" fill="none" stroke="#848b9f" stroke-miterlimit="10" stroke-width="1.5"/>
</svg>
