<svg xmlns="http://www.w3.org/2000/svg" width="10" height="10.384" viewBox="0 0 10 10.384">
  <g id="Path_27124" data-name="Path 27124" transform="translate(12.303 -1.306) rotate(90)" fill="none">
    <path d="M5.441,2.942a1.194,1.194,0,0,1,2.115,0l4,7.611a1.194,1.194,0,0,1-1.058,1.75H2.5a1.194,1.194,0,0,1-1.058-1.75Z" stroke="none"/>
    <path d="M 6.498057842254639 3.302609443664551 C 6.420097827911377 3.302609443664551 6.36218786239624 3.33760929107666 6.325947761535645 3.40664005279541 L 2.330058097839355 11.01786994934082 C 2.296237945556641 11.08227920532227 2.298168182373047 11.14650917053223 2.335807800292969 11.20878028869629 C 2.373437881469727 11.27103996276855 2.429408073425293 11.30260944366455 2.502158164978027 11.30260944366455 L 10.49394798278809 11.30260944366455 C 10.56670761108398 11.30260944366455 10.62267780303955 11.27103996276855 10.66030788421631 11.20876979827881 C 10.69794750213623 11.14650917053223 10.69987773895264 11.08227920532227 10.66605758666992 11.01785945892334 L 6.670167922973633 3.406649589538574 C 6.633927822113037 3.33760929107666 6.5760178565979 3.302609443664551 6.498057842254639 3.302609443664551 M 6.498057842254639 2.302615165710449 C 6.914952754974365 2.302615165710449 7.331847667694092 2.515679359436035 7.555567741394043 2.94180965423584 L 11.55145835876465 10.55303001403809 C 11.96899795532227 11.34834003448486 11.39219760894775 12.30260944366455 10.49394798278809 12.30260944366455 L 2.502158164978027 12.30260944366455 C 1.603918075561523 12.30260944366455 1.027117729187012 11.34834003448486 1.444658279418945 10.55303001403809 L 5.440547943115234 2.94180965423584 C 5.664268016815186 2.515679359436035 6.081162929534912 2.302615165710449 6.498057842254639 2.302615165710449 Z" stroke="none" fill="#fff"/>
  </g>
</svg>
