<svg xmlns="http://www.w3.org/2000/svg" width="16.745" height="17.388" viewBox="0 0 16.745 17.388">
  <g id="Path_27124" data-name="Path 27124" transform="translate(19.048 -1.306) rotate(90)" fill="none">
    <path d="M8.229,3.373a2,2,0,0,1,3.542,0l6.691,12.745a2,2,0,0,1-1.771,2.93H3.309a2,2,0,0,1-1.771-2.93Z" stroke="none"/>
    <path d="M 10 3.802616119384766 C 9.887129783630371 3.802616119384766 9.679530143737793 3.837377548217773 9.557299613952637 4.070196151733398 L 2.866170883178711 16.81520652770996 C 2.752109527587891 17.03245735168457 2.826480865478516 17.21611785888672 2.880970001220703 17.3062572479248 C 2.935449600219727 17.39639663696289 3.06348991394043 17.54761695861816 3.308870315551758 17.54761695861816 L 16.69112968444824 17.54761695861816 C 16.93651008605957 17.54761695861816 17.06455039978027 17.39639663696289 17.11903953552246 17.3062572479248 C 17.17351913452148 17.21611785888672 17.24789047241211 17.03245735168457 17.13383102416992 16.8151969909668 L 10.44268989562988 4.070196151733398 C 10.32046031951904 3.837377548217773 10.11287021636963 3.802616119384766 10 3.802616119384766 M 9.999999046325684 2.302614212036133 C 10.69808769226074 2.302614212036133 11.39617538452148 2.659391403198242 11.77079010009766 3.372947692871094 L 18.46192932128906 16.11794662475586 C 19.16109085083008 17.44968795776367 18.19524002075195 19.04761695861816 16.69112968444824 19.04761695861816 L 3.308870315551758 19.04761695861816 C 1.804759979248047 19.04761695861816 0.8389091491699219 17.44968795776367 1.538080215454102 16.11794662475586 L 8.22920036315918 3.372947692871094 C 8.603819847106934 2.659391403198242 9.301910400390625 2.302614212036133 9.999999046325684 2.302614212036133 Z" stroke="none" fill="#182a63"/>
  </g>
</svg>
