<svg xmlns="http://www.w3.org/2000/svg" width="19" height="19" viewBox="0 0 19 19">
  <path id="Path_27149" data-name="Path 27149" d="M18.774.177a.689.689,0,0,0-.527-.169L6.033,1.365a.679.679,0,0,0-.6.675V14.133a3.926,3.926,0,0,0-2.036-.557C1.522,13.576,0,14.793,0,16.29S1.522,19,3.393,19s3.393-1.217,3.393-2.714V6.043L17.643,4.834v7.939a3.927,3.927,0,0,0-2.036-.555c-1.871,0-3.393,1.217-3.393,2.714s1.522,2.714,3.393,2.714S19,16.431,19,14.933V.683A.678.678,0,0,0,18.774.177Z" transform="translate(0 -0.004)" fill="#ffc90d"/>
</svg>
