<svg xmlns="http://www.w3.org/2000/svg" width="20.467" height="20" viewBox="0 0 20.467 20">
  <g id="next" transform="translate(0 0)">
    <g id="Group_3840" data-name="Group 3840" transform="translate(5.267 0)">
      <g id="Group_3839" data-name="Group 3839">
        <path id="Path_27117" data-name="Path 27117" d="M.437,16.664l13.2,9a1,1,0,0,0,1.563-.826v-18a1,1,0,0,0-1.563-.827l-13.2,9a1,1,0,0,0,0,1.653ZM13.2,8.73V22.946L2.775,15.838Z" transform="translate(0 -5.838)" fill="#1b2437"/>
      </g>
    </g>
    <g id="Group_3842" data-name="Group 3842" transform="translate(0 1.133)">
      <g id="Group_3841" data-name="Group 3841">
        <path id="Path_27118" data-name="Path 27118" d="M462.968,51.921a1,1,0,0,0,1-1V35.188a1,1,0,1,0-2,0V50.921A1,1,0,0,0,462.968,51.921Z" transform="translate(-461.968 -34.188)" fill="#1b2437"/>
      </g>
    </g>
  </g>
</svg>
