<svg id="repeat" xmlns="http://www.w3.org/2000/svg" width="21.817" height="20" viewBox="0 0 21.817 20">
  <g id="Group_3832" data-name="Group 3832" transform="translate(0 0)">
    <g id="Group_3831" data-name="Group 3831">
      <path id="Path_27112" data-name="Path 27112" d="M157.515,24.05h-5.088l1.175-1.175a.909.909,0,0,0-1.286-1.286l-2.727,2.727c-.021.021-.041.043-.06.067s-.016.022-.024.032-.02.026-.029.039-.016.026-.024.04-.015.024-.022.037-.013.027-.02.041-.013.026-.018.039-.01.027-.015.041-.011.029-.015.043-.007.027-.011.041-.008.03-.011.045-.005.032-.007.048,0,.027-.006.04c0,.03,0,.059,0,.089h0q0,.044,0,.089c0,.014,0,.027.006.04s0,.032.007.048.007.03.011.045.006.027.011.041.01.029.015.043.009.027.015.041.012.026.018.04.013.028.02.041.014.025.022.037.015.027.024.04.019.026.029.039.016.022.024.032.039.045.06.067l2.727,2.727a.909.909,0,1,0,1.286-1.286l-1.175-1.175H157.5a5.45,5.45,0,0,1,5.455,5.455,4.933,4.933,0,0,1-1.454,3.5.909.909,0,0,0,1.286,1.285,6.75,6.75,0,0,0,1.986-4.781A7.268,7.268,0,0,0,157.515,24.05Z" transform="translate(-142.96 -21.322)" fill="#1b2437"/>
      <path id="Path_27113" data-name="Path 27113" d="M15.272,149.495c.01-.013.02-.026.029-.039s.016-.026.024-.04.015-.024.022-.037.013-.027.02-.041.013-.026.018-.039.01-.027.015-.041.011-.029.015-.043.007-.028.011-.041.008-.03.011-.045.005-.032.007-.048,0-.026.006-.04a.915.915,0,0,0,0-.179c0-.013,0-.027-.006-.04s0-.032-.007-.048-.007-.03-.011-.045-.006-.028-.011-.041-.01-.029-.015-.043-.009-.027-.015-.041-.012-.026-.018-.039-.013-.028-.02-.041-.014-.024-.022-.037-.015-.027-.024-.04-.019-.026-.029-.039-.016-.022-.024-.033-.038-.045-.059-.066h0l-2.727-2.727a.909.909,0,0,0-1.286,1.286l1.175,1.175H7.273a5.45,5.45,0,0,1-5.455-5.455,4.933,4.933,0,0,1,1.454-3.5.909.909,0,0,0-1.286-1.285A6.75,6.75,0,0,0,0,142.587a7.268,7.268,0,0,0,7.262,7.273H12.35l-1.175,1.175a.909.909,0,0,0,1.286,1.286l2.727-2.727h0c.021-.021.041-.043.06-.066S15.264,149.506,15.272,149.495Z" transform="translate(0 -132.587)" fill="#1b2437"/>
    </g>
  </g>
</svg>
