<svg id="shuffle" xmlns="http://www.w3.org/2000/svg" width="20" height="15.715" viewBox="0 0 20 15.715">
  <g id="Group_3834" data-name="Group 3834" transform="translate(0 0)">
    <g id="Group_3833" data-name="Group 3833">
      <path id="Path_27114" data-name="Path 27114" d="M19.791,54.256h0L16.932,51.4a.714.714,0,0,0-1.01,1.01l1.639,1.639h-3.99a5.006,5.006,0,0,0-5,5A3.576,3.576,0,0,1,5,62.618H.714a.714.714,0,1,0,0,1.429H5a5.006,5.006,0,0,0,5-5,3.576,3.576,0,0,1,3.571-3.571h3.99l-1.638,1.638a.714.714,0,1,0,.992,1.027l.018-.018,2.857-2.857A.714.714,0,0,0,19.791,54.256Z" transform="translate(0 -51.197)" fill="#fff"/>
    </g>
  </g>
  <g id="Group_3836" data-name="Group 3836" transform="translate(10.004 8.571)">
    <g id="Group_3835" data-name="Group 3835">
      <path id="Path_27115" data-name="Path 27115" d="M248.823,259.057h0l-2.857-2.857a.714.714,0,0,0-1.01,1.01l1.639,1.639H242.6a3.566,3.566,0,0,1-2.381-.909.714.714,0,0,0-.953,1.064,4.992,4.992,0,0,0,3.334,1.274h3.99l-1.638,1.638a.714.714,0,0,0,.992,1.028l.018-.018,2.857-2.857A.714.714,0,0,0,248.823,259.057Z" transform="translate(-239.036 -255.998)" fill="#fff"/>
    </g>
  </g>
  <g id="Group_3838" data-name="Group 3838" transform="translate(0 2.849)">
    <g id="Group_3837" data-name="Group 3837">
      <path id="Path_27116" data-name="Path 27116" d="M8.334,120.546A4.992,4.992,0,0,0,5,119.272H.714a.714.714,0,0,0,0,1.429H5a3.566,3.566,0,0,1,2.381.909.714.714,0,0,0,.953-1.064Z" transform="translate(0 -119.272)" fill="#fff"/>
    </g>
  </g>
</svg>
