<svg xmlns="http://www.w3.org/2000/svg" width="23.738" height="20" viewBox="0 0 23.738 20">
  <g id="speaker" transform="translate(0 -40.31)">
    <path id="Path_27120" data-name="Path 27120" d="M10.877,40.617l-6.25,3.8H.7a.7.7,0,0,0-.7.7V55.5a.7.7,0,0,0,.7.7H4.627l6.25,3.8a2.086,2.086,0,0,0,3.171-1.782V42.4A2.086,2.086,0,0,0,10.877,40.617Zm-9.486,5.2H4.126v8.994H1.391ZM12.657,58.22a.7.7,0,0,1-1.057.594l-6.083-3.7v-9.6l6.083-3.7a.7.7,0,0,1,1.057.594Z" fill="#1b2437"/>
    <path id="Path_27121" data-name="Path 27121" d="M341.488,212.924a.7.7,0,0,0,0,.983,1.158,1.158,0,0,1,0,1.639.7.7,0,1,0,.983.983,2.553,2.553,0,0,0,0-3.606A.7.7,0,0,0,341.488,212.924Z" transform="translate(-325.462 -164.417)" fill="#1b2437"/>
    <path id="Path_27122" data-name="Path 27122" d="M387.727,167.67a.7.7,0,0,0-.983.983,4.131,4.131,0,0,1,0,5.835.7.7,0,0,0,.983.983A5.523,5.523,0,0,0,387.727,167.67Z" transform="translate(-368.619 -121.262)" fill="#1b2437"/>
    <path id="Path_27123" data-name="Path 27123" d="M432.981,122.415a.7.7,0,1,0-.983.983,7.018,7.018,0,0,1,0,10.032.7.7,0,1,0,.983.983A8.374,8.374,0,0,0,432.981,122.415Z" transform="translate(-411.775 -78.105)" fill="#1b2437"/>
  </g>
</svg>
